<svg width="18" height="18" viewBox="0 0 18 18" fill="none" xmlns="http://www.w3.org/2000/svg">
<path d="M13.1667 9.83333C13.9416 9.83333 14.3291 9.83333 14.647 9.74815C15.5098 9.51698 16.1836 8.84311 16.4148 7.98038C16.5 7.66246 16.5 7.27498 16.5 6.5V5.5C16.5 4.09987 16.5 3.3998 16.2275 2.86502C15.9878 2.39462 15.6054 2.01217 15.135 1.77248C14.6002 1.5 13.9001 1.5 12.5 1.5L5.5 1.5C4.09987 1.5 3.3998 1.5 2.86502 1.77248C2.39462 2.01217 2.01217 2.39462 1.77248 2.86502C1.5 3.3998 1.5 4.09987 1.5 5.5V6.5C1.5 7.27498 1.5 7.66246 1.58519 7.98038C1.81635 8.84311 2.49022 9.51698 3.35295 9.74815C3.67087 9.83333 4.05836 9.83333 4.83333 9.83333M5.66667 13.1667L9 16.5M9 16.5L12.3333 13.1667M9 16.5V6.5" stroke="#4D69FA" stroke-width="1.5" stroke-linecap="round" stroke-linejoin="round"/>
</svg>
