<svg width="1080" height="1080" viewBox="0 0 1080 1080" fill="none" xmlns="http://www.w3.org/2000/svg">
<rect width="1080" height="1080" rx="200" fill="#470000"/>
<path d="M249.2 752V322.4H400.4C420.8 322.4 439.8 325.8 457.4 332.6C475.4 339 491 348.2 504.2 360.2C517.4 372.2 527.8 386.6 535.4 403.4C543 419.8 546.8 438 546.8 458C546.8 478.4 543 497 535.4 513.8C527.8 530.2 517.4 544.4 504.2 556.4C491 568.4 475.4 577.8 457.4 584.6C439.8 591 420.8 594.2 400.4 594.2H330.2V752H249.2ZM401.6 517.4C422.8 517.4 438.8 511.4 449.6 499.4C460.4 487.4 465.8 473.6 465.8 458C465.8 450.4 464.4 443 461.6 435.8C459.2 428.6 455.2 422.4 449.6 417.2C444.4 411.6 437.8 407.2 429.8 404C421.8 400.8 412.4 399.2 401.6 399.2H330.2V517.4H401.6ZM851.984 681.2C838.384 705.2 819.984 724.6 796.784 739.4C773.984 754.2 745.984 761.6 712.784 761.6C690.384 761.6 669.584 757.8 650.384 750.2C631.584 742.2 615.184 731.2 601.184 717.2C587.184 703.2 576.184 686.8 568.184 668C560.584 648.8 556.784 627.8 556.784 605C556.784 583.8 560.584 563.8 568.184 545C575.784 525.8 586.384 509.2 599.984 495.2C613.584 480.8 629.584 469.4 647.984 461C666.784 452.6 687.384 448.4 709.784 448.4C733.384 448.4 754.384 452.4 772.784 460.4C791.184 468 806.584 478.8 818.984 492.8C831.384 506.4 840.784 522.6 847.184 541.4C853.584 560.2 856.784 580.6 856.784 602.6C856.784 605.4 856.784 607.8 856.784 609.8C856.384 612.2 856.184 614.4 856.184 616.4C855.784 618.4 855.584 620.6 855.584 623H634.184C635.784 635 638.984 645.4 643.784 654.2C648.984 662.6 655.184 669.8 662.384 675.8C669.984 681.4 678.184 685.6 686.984 688.4C695.784 690.8 704.784 692 713.984 692C731.984 692 746.784 688 758.384 680C770.384 671.6 779.784 661.2 786.584 648.8L851.984 681.2ZM780.584 567.2C780.184 562 778.384 556.2 775.184 549.8C772.384 543.4 767.984 537.4 761.984 531.8C756.384 526.2 749.184 521.6 740.384 518C731.984 514.4 721.784 512.6 709.784 512.6C692.984 512.6 678.184 517.4 665.384 527C652.584 536.6 643.584 550 638.384 567.2H780.584Z" fill="#D10234"/>
</svg>
