<svg width="18" height="18" viewBox="0 0 18 18" fill="none" xmlns="http://www.w3.org/2000/svg">
<path d="M4.83333 8.16667C4.05836 8.16667 3.67087 8.16667 3.35295 8.25185C2.49022 8.48302 1.81635 9.15689 1.58519 10.0196C1.5 10.3375 1.5 10.725 1.5 11.5V12.5C1.5 13.9001 1.5 14.6002 1.77248 15.135C2.01217 15.6054 2.39462 15.9878 2.86502 16.2275C3.3998 16.5 4.09987 16.5 5.5 16.5H12.5C13.9001 16.5 14.6002 16.5 15.135 16.2275C15.6054 15.9878 15.9878 15.6054 16.2275 15.135C16.5 14.6002 16.5 13.9001 16.5 12.5V11.5C16.5 10.725 16.5 10.3375 16.4148 10.0196C16.1836 9.15689 15.5098 8.48302 14.647 8.25185C14.3291 8.16667 13.9416 8.16667 13.1667 8.16667M12.3333 4.83333L9 1.5M9 1.5L5.66667 4.83333M9 1.5V11.5" stroke="#4D69FA" stroke-width="1.5" stroke-linecap="round" stroke-linejoin="round"/>
</svg>
