<svg width="14" height="14" viewBox="0 0 14 14" fill="none" xmlns="http://www.w3.org/2000/svg">
<path d="M8.16659 1.32373V3.73321C8.16659 4.05991 8.16659 4.22326 8.23017 4.34804C8.28609 4.4578 8.37533 4.54704 8.48509 4.60297C8.60987 4.66655 8.77322 4.66655 9.09992 4.66655H11.5094M8.16659 9.9165H4.66659M9.33325 7.58317H4.66659M11.6666 5.8263V10.0332C11.6666 11.0133 11.6666 11.5033 11.4758 11.8777C11.3081 12.2069 11.0404 12.4747 10.7111 12.6424C10.3367 12.8332 9.84668 12.8332 8.86659 12.8332H5.13325C4.15316 12.8332 3.66311 12.8332 3.28877 12.6424C2.95949 12.4747 2.69177 12.2069 2.52399 11.8777C2.33325 11.5033 2.33325 11.0133 2.33325 10.0332V3.9665C2.33325 2.98641 2.33325 2.49637 2.52399 2.12202C2.69177 1.79274 2.95949 1.52502 3.28877 1.35724C3.66311 1.1665 4.15316 1.1665 5.13325 1.1665H7.00679C7.43482 1.1665 7.64884 1.1665 7.85024 1.21486C8.0288 1.25773 8.19951 1.32843 8.35608 1.42438C8.53269 1.53261 8.68402 1.68394 8.98669 1.9866L10.8465 3.8464C11.1492 4.14907 11.3005 4.3004 11.4087 4.47701C11.5047 4.63358 11.5754 4.80428 11.6182 4.98285C11.6666 5.18425 11.6666 5.39827 11.6666 5.8263Z" stroke="#717171" stroke-width="1.5" stroke-linecap="round" stroke-linejoin="round"/>
</svg>
