<svg width="14" height="14" viewBox="0 0 14 14" fill="none" xmlns="http://www.w3.org/2000/svg">
<path d="M6.99992 7.58317C7.32209 7.58317 7.58325 7.322 7.58325 6.99984C7.58325 6.67767 7.32209 6.4165 6.99992 6.4165C6.67775 6.4165 6.41659 6.67767 6.41659 6.99984C6.41659 7.322 6.67775 7.58317 6.99992 7.58317Z" stroke="#717171" stroke-width="2" stroke-linecap="round" stroke-linejoin="round"/>
<path d="M11.0833 7.58317C11.4054 7.58317 11.6666 7.322 11.6666 6.99984C11.6666 6.67767 11.4054 6.4165 11.0833 6.4165C10.7611 6.4165 10.4999 6.67767 10.4999 6.99984C10.4999 7.322 10.7611 7.58317 11.0833 7.58317Z" stroke="#717171" stroke-width="2" stroke-linecap="round" stroke-linejoin="round"/>
<path d="M2.91659 7.58317C3.23875 7.58317 3.49992 7.322 3.49992 6.99984C3.49992 6.67767 3.23875 6.4165 2.91659 6.4165C2.59442 6.4165 2.33325 6.67767 2.33325 6.99984C2.33325 7.322 2.59442 7.58317 2.91659 7.58317Z" stroke="#717171" stroke-width="2" stroke-linecap="round" stroke-linejoin="round"/>
</svg>
