<svg width="55" height="56" viewBox="0 0 55 56" fill="none" xmlns="http://www.w3.org/2000/svg">
<path d="M46.811 26.6011V16.8736C46.811 7.6713 44.6645 5.36499 36.0331 5.36499H18.7701C10.1386 5.36499 7.99219 7.6713 7.99219 16.8736V42.5854C7.99219 48.6594 11.3261 50.098 15.3678 45.7594L15.3906 45.7365C17.263 43.7499 20.1173 43.9098 21.7386 46.079L24.0449 49.1617" stroke="#F8F9FA" stroke-width="1.5" stroke-linecap="round" stroke-linejoin="round"/>
<path d="M41.5591 49.6642C45.5946 49.6642 48.8661 46.3927 48.8661 42.3571C48.8661 38.3216 45.5946 35.05 41.5591 35.05C37.5235 35.05 34.252 38.3216 34.252 42.3571C34.252 46.3927 37.5235 49.6642 41.5591 49.6642Z" stroke="#F8F9FA" stroke-width="1.5" stroke-linecap="round" stroke-linejoin="round"/>
<path d="M50.2361 51.0343L47.9526 48.7509" stroke="#F8F9FA" stroke-width="1.5" stroke-linecap="round" stroke-linejoin="round"/>
<path d="M18.2676 16.7825H36.5353" stroke="#F8F9FA" stroke-width="1.5" stroke-linecap="round" stroke-linejoin="round"/>
<path d="M20.551 25.9161H34.2518" stroke="#F8F9FA" stroke-width="1.5" stroke-linecap="round" stroke-linejoin="round"/>
</svg>
