<svg width="55" height="56" viewBox="0 0 55 56" fill="none" xmlns="http://www.w3.org/2000/svg">
<path d="M46.8109 26.6011V16.8736C46.8109 7.6713 44.6645 5.36499 36.033 5.36499H18.77C10.1386 5.36499 7.9921 7.6713 7.9921 16.8736V42.5854C7.9921 48.6594 11.326 50.098 15.3677 45.7594L15.3905 45.7365C17.2629 43.7499 20.1172 43.9098 21.7385 46.079L24.0448 49.1617" stroke="#717171" stroke-width="1.5" stroke-linecap="round" stroke-linejoin="round"/>
<path d="M41.5589 49.6642C45.5945 49.6642 48.866 46.3927 48.866 42.3571C48.866 38.3216 45.5945 35.05 41.5589 35.05C37.5233 35.05 34.2518 38.3216 34.2518 42.3571C34.2518 46.3927 37.5233 49.6642 41.5589 49.6642Z" stroke="#717171" stroke-width="1.5" stroke-linecap="round" stroke-linejoin="round"/>
<path d="M50.236 51.0343L47.9526 48.7509" stroke="#717171" stroke-width="1.5" stroke-linecap="round" stroke-linejoin="round"/>
<path d="M18.2677 16.7825H36.5354" stroke="#717171" stroke-width="1.5" stroke-linecap="round" stroke-linejoin="round"/>
<path d="M20.5511 25.9161H34.2518" stroke="#717171" stroke-width="1.5" stroke-linecap="round" stroke-linejoin="round"/>
</svg>
