<svg width="32" height="32" viewBox="0 0 32 32" fill="none" xmlns="http://www.w3.org/2000/svg">
<g clip-path="url(#clip0_1438_1978)">
<path d="M26.0741 0H5.92593C2.65313 0 0 2.65313 0 5.92593V26.0741C0 29.3469 2.65313 32 5.92593 32H26.0741C29.3469 32 32 29.3469 32 26.0741V5.92593C32 2.65313 29.3469 0 26.0741 0Z" fill="#470000"/>
<path d="M7.3837 22.2815V9.55261H11.8637C12.4681 9.55261 13.0311 9.65335 13.5526 9.85483C14.0859 10.0445 14.5481 10.3171 14.9393 10.6726C15.3304 11.0282 15.6385 11.4548 15.8637 11.9526C16.0889 12.4385 16.2015 12.9778 16.2015 13.5704C16.2015 14.1748 16.0889 14.7259 15.8637 15.2237C15.6385 15.7096 15.3304 16.1304 14.9393 16.4859C14.5481 16.8415 14.0859 17.12 13.5526 17.3215C13.0311 17.5111 12.4681 17.6059 11.8637 17.6059H9.7837V22.2815H7.3837ZM11.8993 15.3304C12.5274 15.3304 13.0015 15.1526 13.3215 14.7971C13.6415 14.4415 13.8015 14.0326 13.8015 13.5704C13.8015 13.3452 13.76 13.1259 13.677 12.9126C13.6059 12.6993 13.4874 12.5156 13.3215 12.3615C13.1674 12.1956 12.9718 12.0652 12.7348 11.9704C12.4978 11.8756 12.2193 11.8282 11.8993 11.8282H9.7837V15.3304H11.8993ZM25.244 20.1837C24.841 20.8948 24.2958 21.4697 23.6084 21.9082C22.9329 22.3467 22.1032 22.5659 21.1195 22.5659C20.4558 22.5659 19.8395 22.4534 19.2706 22.2282C18.7136 21.9911 18.2277 21.6652 17.8129 21.2504C17.398 20.8356 17.0721 20.3497 16.8351 19.7926C16.6099 19.2237 16.4973 18.6015 16.4973 17.9259C16.4973 17.2978 16.6099 16.7052 16.8351 16.1482C17.0603 15.5793 17.3743 15.0874 17.7773 14.6726C18.1803 14.2459 18.6543 13.9082 19.1995 13.6593C19.7566 13.4104 20.3669 13.2859 21.0306 13.2859C21.7299 13.2859 22.3521 13.4045 22.8973 13.6415C23.4425 13.8667 23.8988 14.1867 24.2662 14.6015C24.6336 15.0045 24.9121 15.4845 25.1017 16.0415C25.2914 16.5985 25.3862 17.203 25.3862 17.8548C25.3862 17.9378 25.3862 18.0089 25.3862 18.0682C25.3743 18.1393 25.3684 18.2045 25.3684 18.2637C25.3566 18.323 25.3506 18.3882 25.3506 18.4593H18.7906C18.838 18.8148 18.9329 19.123 19.0751 19.3837C19.2291 19.6326 19.4129 19.8459 19.6262 20.0237C19.8514 20.1896 20.0943 20.3141 20.3551 20.3971C20.6158 20.4682 20.8825 20.5037 21.1551 20.5037C21.6884 20.5037 22.1269 20.3852 22.4706 20.1482C22.8262 19.8993 23.1047 19.5911 23.3062 19.2237L25.244 20.1837ZM23.1284 16.8059C23.1166 16.6519 23.0632 16.48 22.9684 16.2904C22.8854 16.1008 22.7551 15.923 22.5773 15.7571C22.4114 15.5911 22.198 15.4548 21.9373 15.3482C21.6884 15.2415 21.3862 15.1882 21.0306 15.1882C20.5329 15.1882 20.0943 15.3304 19.7151 15.6148C19.3358 15.8993 19.0691 16.2963 18.9151 16.8059H23.1284Z" fill="#D10234"/>
</g>
<defs>
<clipPath id="clip0_1438_1978">
<rect width="32" height="32" fill="white"/>
</clipPath>
</defs>
</svg>
