<svg width="149" height="24" viewBox="0 0 149 24" fill="none" xmlns="http://www.w3.org/2000/svg">
<path d="M0.722956 15.408L6.72296 8.928H0.914956V6.24H10.587V8.832L4.58696 15.312H10.683V18H0.722956V15.408ZM19.797 16.752H19.605C19.237 17.2 18.789 17.584 18.261 17.904C17.749 18.224 17.085 18.384 16.269 18.384C15.661 18.384 15.085 18.28 14.541 18.072C14.013 17.88 13.549 17.608 13.149 17.256C12.749 16.904 12.437 16.48 12.213 15.984C11.989 15.488 11.877 14.944 11.877 14.352C11.877 13.744 11.997 13.2 12.237 12.72C12.477 12.224 12.813 11.8 13.245 11.448C13.677 11.096 14.181 10.832 14.757 10.656C15.349 10.464 15.989 10.368 16.677 10.368C17.445 10.368 18.077 10.432 18.573 10.56C19.069 10.672 19.477 10.792 19.797 10.92V10.56C19.797 9.936 19.549 9.424 19.053 9.024C18.557 8.608 17.941 8.4 17.205 8.4C16.117 8.4 15.197 8.856 14.445 9.768L12.165 8.208C13.413 6.64 15.117 5.856 17.277 5.856C19.101 5.856 20.493 6.288 21.453 7.152C22.413 8 22.893 9.264 22.893 10.944V18H19.797V16.752ZM19.797 13.224C19.429 13.048 19.045 12.912 18.645 12.816C18.261 12.704 17.837 12.648 17.373 12.648C16.621 12.648 16.037 12.816 15.621 13.152C15.221 13.472 15.021 13.872 15.021 14.352C15.021 14.832 15.213 15.216 15.597 15.504C15.997 15.792 16.453 15.936 16.965 15.936C17.381 15.936 17.765 15.864 18.117 15.72C18.469 15.56 18.765 15.36 19.005 15.12C19.261 14.864 19.453 14.576 19.581 14.256C19.725 13.92 19.797 13.576 19.797 13.224ZM27.1447 4.536C26.8727 4.536 26.6087 4.488 26.3527 4.392C26.1127 4.28 25.8967 4.136 25.7047 3.96C25.5287 3.768 25.3847 3.552 25.2727 3.312C25.1767 3.072 25.1287 2.808 25.1287 2.52C25.1287 2.232 25.1767 1.968 25.2727 1.728C25.3847 1.488 25.5287 1.28 25.7047 1.104C25.8967 0.911999 26.1127 0.767999 26.3527 0.671999C26.6087 0.559999 26.8727 0.503999 27.1447 0.503999C27.7047 0.503999 28.1847 0.703999 28.5847 1.104C28.9847 1.488 29.1847 1.96 29.1847 2.52C29.1847 3.08 28.9847 3.56 28.5847 3.96C28.1847 4.344 27.7047 4.536 27.1447 4.536ZM25.5847 18V6.24H28.7287V18H25.5847ZM34.5556 7.776H34.7476C35.1156 7.184 35.6116 6.72 36.2356 6.384C36.8596 6.032 37.5716 5.856 38.3716 5.856C39.1076 5.856 39.7556 5.976 40.3156 6.216C40.8756 6.456 41.3316 6.8 41.6836 7.248C42.0516 7.68 42.3236 8.208 42.4996 8.832C42.6916 9.44 42.7876 10.12 42.7876 10.872V18H39.6436V11.256C39.6436 10.408 39.4516 9.784 39.0676 9.384C38.6996 8.968 38.1556 8.76 37.4356 8.76C37.0036 8.76 36.6196 8.856 36.2836 9.048C35.9636 9.224 35.6836 9.472 35.4436 9.792C35.2196 10.096 35.0436 10.464 34.9156 10.896C34.8036 11.312 34.7476 11.76 34.7476 12.24V18H31.6036V6.24H34.5556V7.776ZM44.8089 15.408L50.8089 8.928H45.0009V6.24H54.6729V8.832L48.6729 15.312H54.7689V18H44.8089V15.408ZM62.2029 5.856C63.1149 5.856 63.9469 6.016 64.6989 6.336C65.4669 6.64 66.1229 7.072 66.6669 7.632C67.2269 8.176 67.6589 8.832 67.9629 9.6C68.2829 10.368 68.4429 11.208 68.4429 12.12C68.4429 13.032 68.2829 13.872 67.9629 14.64C67.6589 15.408 67.2269 16.072 66.6669 16.632C66.1229 17.176 65.4669 17.608 64.6989 17.928C63.9469 18.232 63.1149 18.384 62.2029 18.384C61.2909 18.384 60.4509 18.232 59.6829 17.928C58.9309 17.608 58.2749 17.176 57.7149 16.632C57.1709 16.072 56.7389 15.408 56.4189 14.64C56.1149 13.872 55.9629 13.032 55.9629 12.12C55.9629 11.208 56.1149 10.368 56.4189 9.6C56.7389 8.832 57.1709 8.176 57.7149 7.632C58.2749 7.072 58.9309 6.64 59.6829 6.336C60.4509 6.016 61.2909 5.856 62.2029 5.856ZM62.2029 15.48C62.6029 15.48 62.9869 15.408 63.3549 15.264C63.7389 15.104 64.0749 14.88 64.3629 14.592C64.6509 14.304 64.8749 13.952 65.0349 13.536C65.2109 13.12 65.2989 12.648 65.2989 12.12C65.2989 11.592 65.2109 11.12 65.0349 10.704C64.8749 10.288 64.6509 9.936 64.3629 9.648C64.0749 9.36 63.7389 9.144 63.3549 9C62.9869 8.84 62.6029 8.76 62.2029 8.76C61.7869 8.76 61.3949 8.84 61.0269 9C60.6589 9.144 60.3309 9.36 60.0429 9.648C59.7549 9.936 59.5229 10.288 59.3469 10.704C59.1869 11.12 59.1069 11.592 59.1069 12.12C59.1069 12.648 59.1869 13.12 59.3469 13.536C59.5229 13.952 59.7549 14.304 60.0429 14.592C60.3309 14.88 60.6589 15.104 61.0269 15.264C61.3949 15.408 61.7869 15.48 62.2029 15.48ZM75.6405 6.24H78.5925V7.656H78.7845C79.0725 7.16 79.5205 6.736 80.1285 6.384C80.7365 6.032 81.4885 5.856 82.3845 5.856C83.1365 5.856 83.8485 6.016 84.5205 6.336C85.2085 6.64 85.8085 7.072 86.3205 7.632C86.8485 8.176 87.2645 8.832 87.5685 9.6C87.8725 10.368 88.0245 11.208 88.0245 12.12C88.0245 13.032 87.8725 13.872 87.5685 14.64C87.2645 15.408 86.8485 16.072 86.3205 16.632C85.8085 17.176 85.2085 17.608 84.5205 17.928C83.8485 18.232 83.1365 18.384 82.3845 18.384C81.4885 18.384 80.7365 18.208 80.1285 17.856C79.5205 17.504 79.0725 17.08 78.7845 16.584H78.5925L78.7845 18.264V23.184H75.6405V6.24ZM81.7365 15.48C82.1525 15.48 82.5445 15.4 82.9125 15.24C83.2965 15.08 83.6325 14.856 83.9205 14.568C84.2085 14.28 84.4405 13.928 84.6165 13.512C84.7925 13.096 84.8805 12.632 84.8805 12.12C84.8805 11.608 84.7925 11.144 84.6165 10.728C84.4405 10.312 84.2085 9.96 83.9205 9.672C83.6325 9.384 83.2965 9.16 82.9125 9C82.5445 8.84 82.1525 8.76 81.7365 8.76C81.3205 8.76 80.9205 8.84 80.5365 9C80.1685 9.144 79.8405 9.36 79.5525 9.648C79.2645 9.936 79.0325 10.288 78.8565 10.704C78.6805 11.12 78.5925 11.592 78.5925 12.12C78.5925 12.648 78.6805 13.12 78.8565 13.536C79.0325 13.952 79.2645 14.304 79.5525 14.592C79.8405 14.88 80.1685 15.104 80.5365 15.264C80.9205 15.408 81.3205 15.48 81.7365 15.48ZM101.169 15.168C100.625 16.128 99.8893 16.904 98.9613 17.496C98.0493 18.088 96.9293 18.384 95.6013 18.384C94.7053 18.384 93.8733 18.232 93.1053 17.928C92.3533 17.608 91.6973 17.168 91.1373 16.608C90.5773 16.048 90.1373 15.392 89.8173 14.64C89.5133 13.872 89.3613 13.032 89.3613 12.12C89.3613 11.272 89.5133 10.472 89.8173 9.72C90.1213 8.952 90.5453 8.288 91.0893 7.728C91.6333 7.152 92.2733 6.696 93.0093 6.36C93.7613 6.024 94.5853 5.856 95.4813 5.856C96.4253 5.856 97.2653 6.016 98.0013 6.336C98.7373 6.64 99.3533 7.072 99.8493 7.632C100.345 8.176 100.721 8.824 100.977 9.576C101.233 10.328 101.361 11.144 101.361 12.024C101.361 12.136 101.361 12.232 101.361 12.312C101.345 12.408 101.337 12.496 101.337 12.576C101.321 12.656 101.313 12.744 101.313 12.84H92.4573C92.5213 13.32 92.6493 13.736 92.8413 14.088C93.0493 14.424 93.2973 14.712 93.5853 14.952C93.8893 15.176 94.2173 15.344 94.5693 15.456C94.9213 15.552 95.2813 15.6 95.6493 15.6C96.3693 15.6 96.9613 15.44 97.4253 15.12C97.9053 14.784 98.2813 14.368 98.5533 13.872L101.169 15.168ZM98.3133 10.608C98.2973 10.4 98.2253 10.168 98.0973 9.912C97.9853 9.656 97.8093 9.416 97.5693 9.192C97.3453 8.968 97.0573 8.784 96.7053 8.64C96.3693 8.496 95.9613 8.424 95.4813 8.424C94.8093 8.424 94.2173 8.616 93.7053 9C93.1933 9.384 92.8333 9.92 92.6253 10.608H98.3133ZM109.054 5.856C109.966 5.856 110.798 6.016 111.55 6.336C112.318 6.64 112.974 7.072 113.518 7.632C114.078 8.176 114.51 8.832 114.814 9.6C115.134 10.368 115.294 11.208 115.294 12.12C115.294 13.032 115.134 13.872 114.814 14.64C114.51 15.408 114.078 16.072 113.518 16.632C112.974 17.176 112.318 17.608 111.55 17.928C110.798 18.232 109.966 18.384 109.054 18.384C108.142 18.384 107.302 18.232 106.534 17.928C105.782 17.608 105.126 17.176 104.566 16.632C104.022 16.072 103.59 15.408 103.27 14.64C102.966 13.872 102.814 13.032 102.814 12.12C102.814 11.208 102.966 10.368 103.27 9.6C103.59 8.832 104.022 8.176 104.566 7.632C105.126 7.072 105.782 6.64 106.534 6.336C107.302 6.016 108.142 5.856 109.054 5.856ZM109.054 15.48C109.454 15.48 109.838 15.408 110.206 15.264C110.59 15.104 110.926 14.88 111.214 14.592C111.502 14.304 111.726 13.952 111.886 13.536C112.062 13.12 112.15 12.648 112.15 12.12C112.15 11.592 112.062 11.12 111.886 10.704C111.726 10.288 111.502 9.936 111.214 9.648C110.926 9.36 110.59 9.144 110.206 9C109.838 8.84 109.454 8.76 109.054 8.76C108.638 8.76 108.246 8.84 107.878 9C107.51 9.144 107.182 9.36 106.894 9.648C106.606 9.936 106.374 10.288 106.198 10.704C106.038 11.12 105.958 11.592 105.958 12.12C105.958 12.648 106.038 13.12 106.198 13.536C106.374 13.952 106.606 14.304 106.894 14.592C107.182 14.88 107.51 15.104 107.878 15.264C108.246 15.408 108.638 15.48 109.054 15.48ZM117.101 6.24H120.053V7.656H120.245C120.533 7.16 120.981 6.736 121.589 6.384C122.197 6.032 122.949 5.856 123.845 5.856C124.597 5.856 125.309 6.016 125.981 6.336C126.669 6.64 127.269 7.072 127.781 7.632C128.309 8.176 128.725 8.832 129.029 9.6C129.333 10.368 129.485 11.208 129.485 12.12C129.485 13.032 129.333 13.872 129.029 14.64C128.725 15.408 128.309 16.072 127.781 16.632C127.269 17.176 126.669 17.608 125.981 17.928C125.309 18.232 124.597 18.384 123.845 18.384C122.949 18.384 122.197 18.208 121.589 17.856C120.981 17.504 120.533 17.08 120.245 16.584H120.053L120.245 18.264V23.184H117.101V6.24ZM123.197 15.48C123.613 15.48 124.005 15.4 124.373 15.24C124.757 15.08 125.093 14.856 125.381 14.568C125.669 14.28 125.901 13.928 126.077 13.512C126.253 13.096 126.341 12.632 126.341 12.12C126.341 11.608 126.253 11.144 126.077 10.728C125.901 10.312 125.669 9.96 125.381 9.672C125.093 9.384 124.757 9.16 124.373 9C124.005 8.84 123.613 8.76 123.197 8.76C122.781 8.76 122.381 8.84 121.997 9C121.629 9.144 121.301 9.36 121.013 9.648C120.725 9.936 120.493 10.288 120.317 10.704C120.141 11.12 120.053 11.592 120.053 12.12C120.053 12.648 120.141 13.12 120.317 13.536C120.493 13.952 120.725 14.304 121.013 14.592C121.301 14.88 121.629 15.104 121.997 15.264C122.381 15.408 122.781 15.48 123.197 15.48ZM131.26 18V0.816H134.404V18H131.26ZM148.115 15.168C147.571 16.128 146.835 16.904 145.907 17.496C144.995 18.088 143.875 18.384 142.547 18.384C141.651 18.384 140.819 18.232 140.051 17.928C139.299 17.608 138.643 17.168 138.083 16.608C137.523 16.048 137.083 15.392 136.763 14.64C136.459 13.872 136.307 13.032 136.307 12.12C136.307 11.272 136.459 10.472 136.763 9.72C137.067 8.952 137.491 8.288 138.035 7.728C138.579 7.152 139.219 6.696 139.955 6.36C140.707 6.024 141.531 5.856 142.427 5.856C143.371 5.856 144.211 6.016 144.947 6.336C145.683 6.64 146.299 7.072 146.795 7.632C147.291 8.176 147.667 8.824 147.923 9.576C148.179 10.328 148.307 11.144 148.307 12.024C148.307 12.136 148.307 12.232 148.307 12.312C148.291 12.408 148.283 12.496 148.283 12.576C148.267 12.656 148.259 12.744 148.259 12.84H139.403C139.467 13.32 139.595 13.736 139.787 14.088C139.995 14.424 140.243 14.712 140.531 14.952C140.835 15.176 141.163 15.344 141.515 15.456C141.867 15.552 142.227 15.6 142.595 15.6C143.315 15.6 143.907 15.44 144.371 15.12C144.851 14.784 145.227 14.368 145.499 13.872L148.115 15.168ZM145.259 10.608C145.243 10.4 145.171 10.168 145.043 9.912C144.931 9.656 144.755 9.416 144.515 9.192C144.291 8.968 144.003 8.784 143.651 8.64C143.315 8.496 142.907 8.424 142.427 8.424C141.755 8.424 141.163 8.616 140.651 9C140.139 9.384 139.779 9.92 139.571 10.608H145.259Z" fill="#D10234"/>
</svg>
